<?xml version="1.0" standalone="no"?>
<!DOCTYPE svg PUBLIC "-//W3C//DTD SVG 20010904//EN"
 "http://www.w3.org/TR/2001/REC-SVG-20010904/DTD/svg10.dtd">
<svg version="1.0" xmlns="http://www.w3.org/2000/svg"
 width="500.000000pt" height="500.000000pt" viewBox="0 0 500.000000 500.000000"
 preserveAspectRatio="xMidYMid meet">
<metadata>
Created by potrace 1.11, written by Peter Selinger 2001-2013
</metadata>
<g transform="translate(0.000000,500.000000) scale(0.100000,-0.100000)"
fill="#000000" stroke="none">
<path d="M2265 4799 c-289 -30 -582 -121 -854 -265 -652 -344 -1097 -988
-1203 -1739 -16 -118 -16 -475 0 -590 112 -779 574 -1426 1264 -1770 157 -78
386 -159 551 -194 680 -147 1409 35 1955 487 250 207 441 451 592 757 114 230
185 461 222 720 16 115 16 472 0 590 -59 418 -230 819 -490 1150 -69 88 -265
283 -357 357 -348 277 -795 458 -1230 498 -127 12 -334 11 -450 -1z m795
-1021 c0 -18 -862 -2480 -873 -2495 -11 -15 -227 -19 -227 -4 0 4 183 530 406
1167 223 637 419 1196 434 1241 16 46 31 87 35 93 9 15 225 13 225 -2z m-1495
-113 c39 -8 106 -32 150 -54 240 -120 377 -347 379 -631 l1 -95 -574 -3 -573
-2 6 -36 c21 -108 84 -209 169 -273 101 -74 190 -101 337 -101 157 0 252 31
358 118 29 24 55 42 56 40 1 -2 30 -35 64 -74 34 -40 62 -76 62 -82 0 -20
-109 -109 -176 -144 -187 -98 -445 -113 -662 -39 -112 39 -183 83 -266 166
-117 116 -174 237 -197 417 -31 238 55 481 224 633 73 67 213 139 307 159 87
19 249 19 335 1z m1776 -1585 c134 -308 246 -560 249 -560 4 0 114 251 247
558 l240 557 127 3 127 3 -15 -33 c-7 -18 -172 -391 -365 -828 -235 -533 -366
-817 -397 -862 -88 -130 -192 -198 -333 -218 -153 -22 -353 29 -424 108 -17
19 -16 22 34 108 28 49 52 90 54 92 2 2 22 -10 46 -28 24 -17 74 -40 112 -52
117 -35 217 -11 287 69 31 34 120 206 120 230 0 6 -131 307 -291 669 -160 363
-300 678 -310 702 l-18 42 133 0 133 0 244 -560z"/>
<path d="M1316 3459 c-182 -27 -328 -173 -362 -361 l-6 -38 452 0 452 0 -7 43
c-31 183 -183 330 -370 357 -79 11 -78 11 -159 -1z"/>
</g>
</svg>
